<?xml version="1.0" encoding="UTF-8"?><!DOCTYPE svg PUBLIC "-//W3C//DTD SVG 1.1//EN" "http://www.w3.org/Graphics/SVG/1.1/DTD/svg11.dtd"><svg xmlns="http://www.w3.org/2000/svg" xmlns:xlink="http://www.w3.org/1999/xlink"><defs><clipPath id="a"><path fill="#fff" d="M.5 0h128v24H.5z"/></clipPath></defs><symbol id="footer-logo-mobile" viewBox="0 0 129 24"><path d="M2.1 22a9.5 9.5 0 0 1-1.6-5.7V7.8C.4 5.8.9 3.7 2 1.9 3.1.6 4.8 0 7.3 0s4.1.6 5.1 1.7C13.5 3.2 14 5 14 6.7v2.1H9V6.5c0-.7 0-1.4-.3-2-.1-.4-.3-.6-.6-.7-.2-.2-.5-.2-.8-.2-.7 0-1.2.2-1.4.7-.2.7-.3 1.5-.3 2.3v11c0 .7 0 1.4.4 2 .2.6.7.8 1.4.8s1.1-.2 1.3-.7c.2-.7.3-1.4.3-2.2v-2.4h5v2a8 8 0 0 1-1.6 5.2c-1 1.2-2.7 1.8-5 1.8-2.5-.1-4.3-.7-5.3-2ZM19.8.3h5.7l4.2 23.4h-4.6l-.8-5H21l-.8 5h-4.7L19.8.3ZM24 15.7l-1.2-9.1-1.2 9H24Zm9.3-11.5h-3.5V.3h12v3.8h-3.4v19.6h-5.1V4.2ZM50.9.3h8.8v2.5H54v7.7h4.6v2.3H54v8.6h5.7v2.4h-9V.3h.2Zm11.4 0h2.2L71 15.8V.3h2.6v23.4h-2L65 7.7v16h-2.7V.3Zm14.3 0h8.8v2.5h-5.7v7.7h4.6v2.3h-4.6v8.6h5.7v2.4h-8.8V.3ZM88 .3h4.6c1.9-.1 3.7.4 5.2 1.4 1 1 1.6 2.6 1.6 4.8 0 3-1 4.8-2.8 5.4l3.2 11.7h-3.1l-3-11H91v11h-3V.3h.1Zm4.4 10c1 .1 2.1-.1 3-.8.5-.5.8-1.5.8-3 0-.8 0-1.6-.3-2.3-.2-.5-.6-1-1-1.2-.7-.3-1.5-.5-2.3-.4h-1.4v7.7h1.2Zm11 11.7c-1-1.8-1.6-4-1.4-6V8.2c0-1.5.1-3 .5-4.4.3-1 1-2 1.9-2.7 1-.6 2.4-1 3.7-.9 2 0 3.6.5 4.5 1.6A8 8 0 0 1 114 7v.8h-3V7c0-.9 0-1.7-.2-2.6-.1-.5-.4-1-.8-1.3a3 3 0 0 0-2-.5 3 3 0 0 0-2 .6 2.3 2.3 0 0 0-.7 1.6c-.2 1-.2 1.9-.2 2.8v8.7c-.1 1.3 0 2.7.6 4 .4.7 1.2 1 2.4 1a2.4 2.4 0 0 0 2.4-1.2c.5-1.3.7-2.7.7-4.1v-1.6h-3V12h5.9v11.6h-2l-.3-2.7c-.3 1-.8 1.7-1.6 2.2a4 4 0 0 1-2.5.8 5 5 0 0 1-4.3-2Zm17.1-6.5-5-15h3l3.6 11.2L125.5.4h3l-5 15v8.3h-3v-8.2Z"/></symbol><symbol id="footer-logo-tablet" viewBox="0 0 143 27"><path d="M1.788 24.438A10.149 10.149 0 0 1 0 18.188V8.924a10.282 10.282 0 0 1 1.676-6.362c1.23-1.45 3.129-2.12 5.922-2.12 2.794 0 4.581.67 5.699 1.897a8.008 8.008 0 0 1 1.676 5.469v2.232H9.498V7.473c.044-.76-.07-1.52-.335-2.232a1.608 1.608 0 0 0-1.565-.893c-.782 0-1.34.223-1.564.781a7.203 7.203 0 0 0-.335 2.456v11.942a4.617 4.617 0 0 0 .447 2.344c.223.558.782.782 1.564.782s1.229-.224 1.452-.782a6.511 6.511 0 0 0 .336-2.344V16.85h5.475v2.232a8.532 8.532 0 0 1-1.676 5.58c-1.118 1.34-3.017 2.01-5.699 2.01-2.682-.112-4.693-.782-5.81-2.233ZM21.565.776h6.37l4.692 25.448h-5.14l-.893-5.357h-3.688l-.894 5.357h-5.251L21.565.776Zm4.582 16.742-1.341-9.933-1.341 9.933h2.682Zm10.391-12.5H32.74V.776h13.297v4.13h-3.8v21.318h-5.698V5.018ZM56.204.776h9.833v2.68h-6.37v8.37h5.14v2.567h-5.14v9.376h6.37v2.567h-9.945V.776h.112Zm12.738 0H71.4l7.263 16.854V.776h2.905v25.448h-2.234L71.959 8.813v17.411h-3.017V.776Zm15.978 0h9.833v2.68h-6.369v8.37h5.14v2.567h-5.14v9.376h6.37v2.567H84.92V.776Zm12.739 0h5.139a8.947 8.947 0 0 1 5.699 1.563c1.229 1.004 1.788 2.79 1.788 5.134 0 3.237-1.006 5.246-3.129 5.916l3.576 12.724h-3.464l-3.352-11.943h-2.794v11.943h-3.575V.776h.112Zm4.916 10.938a4.885 4.885 0 0 0 3.24-.893c.671-.558 1.006-1.674 1.006-3.348a7.196 7.196 0 0 0-.335-2.456 2.842 2.842 0 0 0-1.229-1.339 5.104 5.104 0 0 0-2.459-.446h-1.564v8.37h1.341v.112Zm12.179 12.613a11.281 11.281 0 0 1-1.564-6.474V9.371c-.028-1.618.16-3.232.559-4.8a5.671 5.671 0 0 1 2.123-2.902 7.302 7.302 0 0 1 4.134-1.004c2.347 0 4.023.558 5.028 1.786a8.536 8.536 0 0 1 1.565 5.58v.893h-3.353v-.781a16.405 16.405 0 0 0-.223-2.79 2.232 2.232 0 0 0-.894-1.451 3.455 3.455 0 0 0-2.123-.558 3.356 3.356 0 0 0-2.235.67 2.523 2.523 0 0 0-.894 1.785 20.819 20.819 0 0 0-.223 3.014V18.3a10.133 10.133 0 0 0 .67 4.241c.447.893 1.341 1.228 2.682 1.228a2.707 2.707 0 0 0 2.682-1.34 10.27 10.27 0 0 0 .782-4.464v-1.786h-3.241v-2.567h6.481v12.612h-2.234l-.336-2.902a4.555 4.555 0 0 1-4.581 3.237 5.594 5.594 0 0 1-4.805-2.232Zm19.107-7.032L128.386.888h3.352l3.911 12.277L139.448.888h3.352l-5.475 16.407v8.929h-3.352v-8.93h-.112Z"/></symbol><symbol id="icon-e-mail" viewBox="0 0 20 20"><path d="M1.5 8.5v8h17v-8m-17-5h17v2l-8.5 6-8.5-6v-2Z"/></symbol><symbol id="icon-logo-academy" viewBox="0 0 27 34"><path d="M13.6 0h-.1L0 1.4V26l13.5 8L27 26V1.4L13.6 0Zm11.6 25-11.7 7-11.7-7V15l11.7 6.8v1.3l-8-4.7v1.2l8 4.8v1.3l-8-4.8v1.2l8 4.9 8.1-4.9V17l3.6-2.1V25Zm0-11.5L22 15.3l-1.5 1-7-4.3v1.2l6 3.6-.2.1-.8.5-5-3v1.3l3.9 2.3-1 .6-3-1.7v1.2l2 1.2-2 1.1-11.6-6.8 11.6-7 11.8 6.9Zm0-1.3L13.4 5.3l-11.6 7V3l11.7-1.2L25.2 3v9.2Z"/></symbol><symbol id="icon-phone" viewBox="0 0 20 20"><path d="M10 10h8.5m0 0L16 7.5m2.5 2.5L16 12.5m-7.5-10v5h-3v5h3v5H6c-1.5 0-2.5-1-2.5-2.5V5c0-1.5 1-2.5 2.5-2.5h2.5Z"/></symbol><symbol id="icon-tg" viewBox="0 0 21 18"><path d="m20 .2.2.6-2.6 15.7a.7.7 0 0 1-1 .5l-8-5.3a.7.7 0 0 1 0-1L11 7.6l-4.3 2.9H6L1 7.8a.7.7 0 0 1 0-1.2L19.3 0c.2 0 .5 0 .7.2ZM2.8 7.3l3.6 1.8 7.5-5a.7.7 0 0 1 .9 1L10 11l6.4 4.2 2.3-13.6L2.8 7.3Z" clip-rule="evenodd"/></symbol><symbol id="icon-vk" viewBox="0 0 28 17"><path d="M.5 2.3C.5 1.5 1 1 2 1h4c.3 0 .5.1.5.4L8 4.6A39.8 39.8 0 0 0 10.3 8s.2 0 .2-.2l.1-.3V3.2c0-.3 0-.5-.2-.6l-.8-.2c-.3 0-.5-.3-.5-.6v-.1C9.5.6 10.6 0 12.3 0h1.5c.7 0 1.3.2 1.7.5.4.3.7.8.7 1.5v5.7l.3.1c.3 0 .5-.1.7-.4A17.7 17.7 0 0 0 20.4 2l.6-.7.8-.4h4.6c.4 0 .7.2.8.5l.2.3a2.4 2.4 0 0 1 0 .6v.1c0 .7-.4 1.5-.9 2.2-.5.8-1.1 1.7-2 2.6A27.6 27.6 0 0 0 23 9.6c0 .1 0 .3.2.5l3.9 4.6c.2.3.3.5.3.9s-.2.7-.5 1a2 2 0 0 1-1.1.3H21l-.1.1c-.4 0-.8-.2-1.1-.5a241.3 241.3 0 0 1-3-3.3 38.5 38.5 0 0 0-.4 2.3l-.1.4c-.2.6-.6 1-1.1 1h-3c-1.5 0-3-.6-4.4-1.8-1.5-1.3-2.8-3-4-5A47.5 47.5 0 0 1 .5 2.3Zm16 6.6c-.4 0-.7-.1-1-.3a.9.9 0 0 1-.5-.8V2c0-.3 0-.6-.2-.7-.2-.2-.5-.2-1-.2h-1.5c-.7 0-1.3.1-1.7.4.8.3 1.2 1 1.2 1.7v4.4c0 .4-.2.8-.6 1-.3.3-.6.5-1 .5-.6 0-1-.3-1.3-.8-1.3-2-2.4-3.8-3-5.6l-.3-.6H1.7v.7l.6 1.4A33 33 0 0 0 7 12.8c1.8 2 3.5 3.1 5.2 3.1h2.9l.1-.4v-.3L16 13l.3-.6c.2-.2.5-.3.7-.3.5 0 .9.3 1.3.8l2.3 2.7c.2.2.3.3.5.3h4.4c.5 0 .8-.1.8-.4l-.1-.2-3.9-4.6c-.3-.3-.4-.7-.4-1 0-.5.1-.9.4-1.3l1.3-1.6 1.8-2.2c.5-.7.8-1.3 1-1.9v-.6H22c-.3 0-.5.2-.6.4l-.2.5c-.2 1-1.5 3-3.4 5.3-.4.4-.8.6-1.3.6Z"/></symbol><symbol id="icon-youtube" viewBox="0 0 25 19"><path d="M16.4 8.8 11 5.3a.7.7 0 0 0-1 .5v7a.7.7 0 0 0 1 .6l5.3-3.5a.7.7 0 0 0 0-1.1Zm-5 2.8V7.1l3.4 2.2-3.4 2.3ZM24 3a2.4 2.4 0 0 0-1.5-1.6C18.7 0 12.8 0 12.5 0c-.3 0-6.2 0-10 1.4A2.4 2.4 0 0 0 1.2 3C.8 4.1.5 6 .5 9.3s.3 5.3.6 6.3a2.4 2.4 0 0 0 1.5 1.7c3.7 1.4 9.6 1.4 9.9 1.4.8 0 6.4 0 10-1.4a2.4 2.4 0 0 0 1.4-1.7c.3-1 .6-3 .6-6.3 0-3.2-.3-5.2-.6-6.3Zm-1.3 12.3a1 1 0 0 1-.6.7c-3.5 1.4-9.4 1.4-9.5 1.4 0 0-6 0-9.5-1.4a1 1 0 0 1-.6-.7c-.3-1-.6-2.8-.6-6 0-3 .3-5 .6-6a1 1 0 0 1 .6-.7c3.5-1.3 9.4-1.3 9.5-1.3 0 0 6 0 9.5 1.3a1 1 0 0 1 .6.8c.3 1 .6 2.8.6 6 0 3-.3 4.9-.6 6Z"/></symbol><symbol id="program-cat-muscles" viewBox="0 0 67 28"><g fill="none"><path d="M61.56 2.878a7.601 7.601 0 0 1 2.25-2.3c.5-.35.8-.35 1.1.3.4.95.75 1.95.45 3a1.144 1.144 0 0 0 .2 1.05c.3.4.55.8.8 1.15a3.135 3.135 0 0 1 .45 3.1 2.716 2.716 0 0 0-.1 1.55 3.825 3.825 0 0 1 0 1.5 1.875 1.875 0 0 1-1.35 1.6 2.606 2.606 0 0 0-1.6 1 .525.525 0 0 1-.45.25c-.6.1-2.1-1.25-2.1-1.85v-.3c.05-1.8-.05-1.95-1.7-2.7a2.196 2.196 0 0 1-.9-.6c-.3-.4-.7-.35-1.15-.2-.45.15-.7.45-.65.95.15 1.21.2 2.432.15 3.65a.94.94 0 0 0 .1.4c1.55 2.25 2.15 4.9 2.9 7.45.6 1.95 1.7 3 3.7 3.15.32.026.637.076.95.15a2.08 2.08 0 0 1 1.7 1.6c.35 1.05.15 1.3-.9 1.3h-3.25a1.62 1.62 0 0 1-1.15-.4 5.856 5.856 0 0 0-1.7-1 3.63 3.63 0 0 1-1.7-1.3 14.307 14.307 0 0 0-2-2.25c-1.4-1.45-2.9-2.85-4.2-4.35a5.69 5.69 0 0 1-1.6-3.8c0-.45-.1-.65-.6-.45a.965.965 0 0 1-.5.15c-1.4 0-2.1.85-2.6 2.1-.45 1.05-1.05 2.05-1.6 3.1a5.195 5.195 0 0 0-.5 2.1c0 1.2.3 1.6 1.4 2 .7.25 1.35.5 1.7 1.2.4.8.3 1-.55 1.05h-3.4a.94.94 0 0 1-.95-.55l-.9-1.5a3.025 3.025 0 0 1-.35-2.7 5.93 5.93 0 0 0 .05-2.65 4.21 4.21 0 0 1 .85-3.5c.3-.35.3-.5-.2-.6a25.03 25.03 0 0 1-5.9-2.05.05.05 0 0 1-.05-.05c-1.6-.6-1.9-.5-2.35 1.15-.4 1.4-.8 2.8-1.1 4.25-.35 1.6.05 3.1.55 4.6.2.6.8.55 1.25.7 1 .3 1.85.7 2.25 1.75.35.8.3.9-.55.9-.85 0-1.7-.05-2.6 0a3.32 3.32 0 0 1-2.1-.7c-2.4-1.6-3.1-4.05-3.3-6.7-.1-1.65-1-2.95-2.05-4.2-.2-.25-.4-.35-.7-.15a22.156 22.156 0 0 1-3.35 1.5 13.355 13.355 0 0 0-6.1 4.4 5.315 5.315 0 0 0-1.1 2.55c-.15.9.1 1.3 1 1.55s1.35.75 1.45 1.7c.05.4-.1.6-.5.6h-4.05a.824.824 0 0 1-.65-.4 4.28 4.28 0 0 1-.95-2.75 25.307 25.307 0 0 1 .45-5.15 3.152 3.152 0 0 1 1.7-2.4c2.95-1.4 4.5-4.05 5.9-6.8.3-.55.05-.65-.45-.6a8.236 8.236 0 0 0-3.85 1.6 35.317 35.317 0 0 0-4.15 3.55 8.335 8.335 0 0 1-5.15 2.45c-3.65.2-5.35-1.85-5.2-5.15a4.845 4.845 0 0 1 1.2-3.05 2.125 2.125 0 0 1 2.25-.75c.75.2.95.6.65 1.35-.15.3-.35.55-.5.85a3.75 3.75 0 0 0-.5 1c-.55 1.5.2 2.55 1.75 2.7 1.65.15 3-.55 4.25-1.55a22.465 22.465 0 0 0 4-4.15 10.395 10.395 0 0 1 7.2-4.05c1.15-.15 2.15-.65 3.25-.95a20.779 20.779 0 0 1 6.35-.9 6.5 6.5 0 0 0 2.9-.55c2.45-1 5-1 7.55-.5 2 .4 4 .9 5.95 1.4a8.29 8.29 0 0 0 3.5-.1 33.894 33.894 0 0 1 6.7-1 9.08 9.08 0 0 1 4.3.85c1 .45 1 .45.75 1.4Z" fill="#000"/></g></symbol><symbol id="program-cat-slim" viewBox="0 0 36 50"><g fill="none"><path d="M28.203 0h-.195c-.33.187-.593.474-.75.82a8.028 8.028 0 0 0-.664 1.757.84.84 0 0 1-.761.691 3.77 3.77 0 0 0-2.69 1.948c-.372.661-.69 1.35-.952 2.062-.73 1.897-1.29 3.856-1.98 5.768-.324.872-.339.872-1.316.872-1.168 0-1.085-.18-1.1 1.108 0 .407.123.613.555.593.133 0 .334-.067.385.108.052.175-.123.252-.226.355a4.626 4.626 0 0 1-2.227 1.258c-.977.263-1.975.47-2.926.789-2.443.82-4.7 1.964-6.46 3.902a14.44 14.44 0 0 0-2.437 4.041C2.57 30.526 1.656 35.217.946 39.954a97.064 97.064 0 0 0-.75 6.7C.102 47.759 0 48.877 0 50h17.141a1.126 1.126 0 0 0-.118-.66 2.577 2.577 0 0 0-1.97-1.582c-.36-.083-.401-.191-.18-.475.36-.482.637-1.022.818-1.597.838-2.48 1.162-5.067 1.568-7.63.23-1.956.83-3.85 1.77-5.582a11.126 11.126 0 0 1 2.874-3.283c.427-.325.443-.325.515.227.051.366.061.742.087 1.113a48.166 48.166 0 0 1-.092 7.31 31.866 31.866 0 0 0-.078 5.67A38.826 38.826 0 0 0 23.503 50h6.84a2.79 2.79 0 0 0-2.18-2.289 4.62 4.62 0 0 0-1.934.103c-.309.073-.438 0-.463-.335a29.113 29.113 0 0 1 .514-8.154 91.803 91.803 0 0 0 1.574-9.371 9.163 9.163 0 0 1 1.172-3.609c.612-1.092 1.147-2.226 1.749-3.324a3.031 3.031 0 0 0 .216-2.676c-.139-.366-.273-.737-.442-1.087-.515-1.005-1.029-2-1.502-3.016-.252-.515-.196-.577.365-.593.838 0 .838 0 .854-.845v-.34c0-.356-.134-.552-.515-.516h-.781c-.355 0-.458-.149-.37-.515a3.217 3.217 0 0 1 2.638-2.284 11.291 11.291 0 0 1 3.404.222.513.513 0 0 0 .643-.33c.206-.515.432-1.03.664-1.546a.517.517 0 0 0-.052-.588c-1.646-2.093-3.43-4.046-5.863-5.299a.767.767 0 0 1-.452-.577 10.123 10.123 0 0 0-.653-2.144A1.803 1.803 0 0 0 28.203 0Z" fill="#000"/></g></symbol><symbol id="slider-button"><rect x="1" y="1" width="38" height="38" rx="19" fill="#fff"/><path d="m16 11-8 9 8 9V11Zm16 9-8-9v18l8-9Z" fill="currentColor"/><rect x="1" y="1" width="38" height="38" rx="19"/></symbol><symbol id="text-login-nav-mobile" viewBox="0 0 129 24"><g fill="none"><g fill="#111" clip-path="url(#a)"><path d="M2.1 22a9.5 9.5 0 0 1-1.6-5.7V7.8C.4 5.8.9 3.7 2 1.9 3.1.6 4.8 0 7.3 0s4.1.6 5.1 1.7C13.5 3.2 14 5 14 6.7v2.1H9V6.5c0-.7 0-1.4-.3-2-.1-.4-.3-.6-.6-.7-.2-.2-.5-.2-.8-.2-.7 0-1.2.2-1.4.7-.2.7-.3 1.5-.3 2.3v11c0 .7 0 1.4.4 2 .2.6.7.8 1.4.8s1.1-.2 1.3-.7c.2-.7.3-1.4.3-2.2v-2.4h5v2a8 8 0 0 1-1.6 5.2c-1 1.2-2.7 1.8-5 1.8-2.5-.1-4.3-.7-5.3-2ZM19.8.3h5.7l4.2 23.4h-4.6l-.8-5H21l-.8 5h-4.7L19.8.3ZM24 15.7l-1.2-9.1-1.2 9H24Zm9.3-11.5h-3.5V.3h12v3.8h-3.4v19.6h-5.1V4.2ZM50.9.3h8.8v2.5H54v7.7h4.6v2.3H54v8.6h5.7v2.4h-9V.3h.2Zm11.4 0h2.2L71 15.8V.3h2.6v23.4h-2L65 7.7v16h-2.7V.3Zm14.3 0h8.8v2.5h-5.7v7.7h4.6v2.3h-4.6v8.6h5.7v2.4h-8.8V.3ZM88 .3h4.6c1.9-.1 3.7.4 5.2 1.4 1 1 1.6 2.6 1.6 4.8 0 3-1 4.8-2.8 5.4l3.2 11.7h-3.1l-3-11H91v11h-3V.3h.1Zm4.4 10c1 .1 2.1-.1 3-.8.5-.5.8-1.5.8-3 0-.8 0-1.6-.3-2.3-.2-.5-.6-1-1-1.2-.7-.3-1.5-.5-2.3-.4h-1.4v7.7h1.2Zm11 11.7c-1-1.8-1.6-4-1.4-6V8.2c0-1.5.1-3 .5-4.4.3-1 1-2 1.9-2.7 1-.6 2.4-1 3.7-.9 2 0 3.6.5 4.5 1.6A8 8 0 0 1 114 7v.8h-3V7c0-.9 0-1.7-.2-2.6-.1-.5-.4-1-.8-1.3a3 3 0 0 0-2-.5 3 3 0 0 0-2 .6 2.3 2.3 0 0 0-.7 1.6c-.2 1-.2 1.9-.2 2.8v8.7c-.1 1.3 0 2.7.6 4 .4.7 1.2 1 2.4 1a2.4 2.4 0 0 0 2.4-1.2c.5-1.3.7-2.7.7-4.1v-1.6h-3V12h5.9v11.6h-2l-.3-2.7c-.3 1-.8 1.7-1.6 2.2a4 4 0 0 1-2.5.8 5 5 0 0 1-4.3-2Zm17.1-6.5-5-15h3l3.6 11.2L125.5.4h3l-5 15v8.3h-3v-8.2Z"/></g></g></symbol></svg>