<?xml version="1.0" encoding="UTF-8"?><!DOCTYPE svg PUBLIC "-//W3C//DTD SVG 1.1//EN" "http://www.w3.org/Graphics/SVG/1.1/DTD/svg11.dtd"><svg xmlns="http://www.w3.org/2000/svg" xmlns:xlink="http://www.w3.org/1999/xlink"><defs><clipPath id="a"><path fill="#fff" d="M0 0h33.32v37.61H0z"/></clipPath><clipPath id="b"><path fill="#fff" transform="translate(90 13)" d="M0 0h101v18H0z"/></clipPath><clipPath id="a"><path fill="#fff" d="M.5 0h128v24H.5z"/></clipPath></defs><symbol id="arrow" viewBox="0 0 24 12"><g fill="none"><path stroke="#000" stroke-width="2" d="M0 6h18"/><path fill="#000" d="m24 6-6.8 5.2V.8L24 6Z"/></g></symbol><symbol id="footer-logo-mobile" viewBox="0 0 129 24"><path d="M2.1 22a9.5 9.5 0 0 1-1.6-5.7V7.8C.4 5.8.9 3.7 2 1.9 3.1.6 4.8 0 7.3 0s4.1.6 5.1 1.7C13.5 3.2 14 5 14 6.7v2.1H9V6.5c0-.7 0-1.4-.3-2-.1-.4-.3-.6-.6-.7-.2-.2-.5-.2-.8-.2-.7 0-1.2.2-1.4.7-.2.7-.3 1.5-.3 2.3v11c0 .7 0 1.4.4 2 .2.6.7.8 1.4.8s1.1-.2 1.3-.7c.2-.7.3-1.4.3-2.2v-2.4h5v2a8 8 0 0 1-1.6 5.2c-1 1.2-2.7 1.8-5 1.8-2.5-.1-4.3-.7-5.3-2ZM19.8.3h5.7l4.2 23.4h-4.6l-.8-5H21l-.8 5h-4.7L19.8.3ZM24 15.7l-1.2-9.1-1.2 9H24Zm9.3-11.5h-3.5V.3h12v3.8h-3.4v19.6h-5.1V4.2ZM50.9.3h8.8v2.5H54v7.7h4.6v2.3H54v8.6h5.7v2.4h-9V.3h.2Zm11.4 0h2.2L71 15.8V.3h2.6v23.4h-2L65 7.7v16h-2.7V.3Zm14.3 0h8.8v2.5h-5.7v7.7h4.6v2.3h-4.6v8.6h5.7v2.4h-8.8V.3ZM88 .3h4.6c1.9-.1 3.7.4 5.2 1.4 1 1 1.6 2.6 1.6 4.8 0 3-1 4.8-2.8 5.4l3.2 11.7h-3.1l-3-11H91v11h-3V.3h.1Zm4.4 10c1 .1 2.1-.1 3-.8.5-.5.8-1.5.8-3 0-.8 0-1.6-.3-2.3-.2-.5-.6-1-1-1.2-.7-.3-1.5-.5-2.3-.4h-1.4v7.7h1.2Zm11 11.7c-1-1.8-1.6-4-1.4-6V8.2c0-1.5.1-3 .5-4.4.3-1 1-2 1.9-2.7 1-.6 2.4-1 3.7-.9 2 0 3.6.5 4.5 1.6A8 8 0 0 1 114 7v.8h-3V7c0-.9 0-1.7-.2-2.6-.1-.5-.4-1-.8-1.3a3 3 0 0 0-2-.5 3 3 0 0 0-2 .6 2.3 2.3 0 0 0-.7 1.6c-.2 1-.2 1.9-.2 2.8v8.7c-.1 1.3 0 2.7.6 4 .4.7 1.2 1 2.4 1a2.4 2.4 0 0 0 2.4-1.2c.5-1.3.7-2.7.7-4.1v-1.6h-3V12h5.9v11.6h-2l-.3-2.7c-.3 1-.8 1.7-1.6 2.2a4 4 0 0 1-2.5.8 5 5 0 0 1-4.3-2Zm17.1-6.5-5-15h3l3.6 11.2L125.5.4h3l-5 15v8.3h-3v-8.2Z"/></symbol><symbol id="footer-logo-tablet" viewBox="0 0 143 27"><path d="M1.788 24.438A10.149 10.149 0 0 1 0 18.188V8.924a10.282 10.282 0 0 1 1.676-6.362c1.23-1.45 3.129-2.12 5.922-2.12 2.794 0 4.581.67 5.699 1.897a8.008 8.008 0 0 1 1.676 5.469v2.232H9.498V7.473c.044-.76-.07-1.52-.335-2.232a1.608 1.608 0 0 0-1.565-.893c-.782 0-1.34.223-1.564.781a7.203 7.203 0 0 0-.335 2.456v11.942a4.617 4.617 0 0 0 .447 2.344c.223.558.782.782 1.564.782s1.229-.224 1.452-.782a6.511 6.511 0 0 0 .336-2.344V16.85h5.475v2.232a8.532 8.532 0 0 1-1.676 5.58c-1.118 1.34-3.017 2.01-5.699 2.01-2.682-.112-4.693-.782-5.81-2.233ZM21.565.776h6.37l4.692 25.448h-5.14l-.893-5.357h-3.688l-.894 5.357h-5.251L21.565.776Zm4.582 16.742-1.341-9.933-1.341 9.933h2.682Zm10.391-12.5H32.74V.776h13.297v4.13h-3.8v21.318h-5.698V5.018ZM56.204.776h9.833v2.68h-6.37v8.37h5.14v2.567h-5.14v9.376h6.37v2.567h-9.945V.776h.112Zm12.738 0H71.4l7.263 16.854V.776h2.905v25.448h-2.234L71.959 8.813v17.411h-3.017V.776Zm15.978 0h9.833v2.68h-6.369v8.37h5.14v2.567h-5.14v9.376h6.37v2.567H84.92V.776Zm12.739 0h5.139a8.947 8.947 0 0 1 5.699 1.563c1.229 1.004 1.788 2.79 1.788 5.134 0 3.237-1.006 5.246-3.129 5.916l3.576 12.724h-3.464l-3.352-11.943h-2.794v11.943h-3.575V.776h.112Zm4.916 10.938a4.885 4.885 0 0 0 3.24-.893c.671-.558 1.006-1.674 1.006-3.348a7.196 7.196 0 0 0-.335-2.456 2.842 2.842 0 0 0-1.229-1.339 5.104 5.104 0 0 0-2.459-.446h-1.564v8.37h1.341v.112Zm12.179 12.613a11.281 11.281 0 0 1-1.564-6.474V9.371c-.028-1.618.16-3.232.559-4.8a5.671 5.671 0 0 1 2.123-2.902 7.302 7.302 0 0 1 4.134-1.004c2.347 0 4.023.558 5.028 1.786a8.536 8.536 0 0 1 1.565 5.58v.893h-3.353v-.781a16.405 16.405 0 0 0-.223-2.79 2.232 2.232 0 0 0-.894-1.451 3.455 3.455 0 0 0-2.123-.558 3.356 3.356 0 0 0-2.235.67 2.523 2.523 0 0 0-.894 1.785 20.819 20.819 0 0 0-.223 3.014V18.3a10.133 10.133 0 0 0 .67 4.241c.447.893 1.341 1.228 2.682 1.228a2.707 2.707 0 0 0 2.682-1.34 10.27 10.27 0 0 0 .782-4.464v-1.786h-3.241v-2.567h6.481v12.612h-2.234l-.336-2.902a4.555 4.555 0 0 1-4.581 3.237 5.594 5.594 0 0 1-4.805-2.232Zm19.107-7.032L128.386.888h3.352l3.911 12.277L139.448.888h3.352l-5.475 16.407v8.929h-3.352v-8.93h-.112Z"/></symbol><symbol id="icon-e-mail" viewBox="0 0 20 20"><path d="M1.5 8.5v8h17v-8m-17-5h17v2l-8.5 6-8.5-6v-2Z"/></symbol><symbol id="icon-login-nav-desktop" viewBox="0 0 202 60"><g fill="none"><path d="M59.88 24a25.61 25.61 0 1 0-27.37 35.2c-.58-2.09-1.17-4.4-1.69-6.85a32.31 32.31 0 0 0 4.76 2.55s.12 2.16.28 4.57c1.788.03 3.575-.127 5.33-.47a2.137 2.137 0 0 1 0-.76c.29-1.87 1.09-5.24 1.25-7.41a15.223 15.223 0 0 0 2.9-3.71l-.06.44c-.55 4.26-1.7 8.81-2.4 10.07a5.585 5.585 0 0 1-.83 1.15A25.64 25.64 0 0 0 59.88 24Zm-1.47 3.79c-.44.43-1.35.72-1.5-.58-.15-1.3-.19-2.21-.19-2.21s-1.93-3.43-2.65-3.47c-.72-.04-5.83 3.47-7.18 5-1.17 1.29-1.4 1.2-1.4 3.47 0 1.71.22 8.17.1 13.11l-8.15 2.17a64.006 64.006 0 0 1-7.8 1.72l-1-5.83h-.14L25.93 28s-3.81-1.44-5.21-1.83a3.76 3.76 0 0 0-4 .63 5.069 5.069 0 0 0-1.73 3.85c.211.465.372.95.48 1.45.05.48-1.2.43-2 .43s-.92-1.44-.29-3.13c.492-1.3 1.1-2.551 1.82-3.74a11.869 11.869 0 0 1 2.07-2.89s.14-.34 1.25-.24c1.11.1 7.28.43 7.28.43l.05-2.27a142.763 142.763 0 0 1 20.24-1.34v1.83a22.52 22.52 0 0 1 8.14-2 .91.91 0 0 1 .77.39c.34.43 2.41 3 2.65 3.37.672.96 1.283 1.963 1.83 3a6.243 6.243 0 0 1-.87 1.84v.01Z" fill="#FDC305"/><path d="M56.46 21.67c.47.6.88 1.13 1 1.29.672.96 1.283 1.963 1.83 3a6.242 6.242 0 0 1-.86 1.78c-.44.43-1.35.72-1.5-.58-.15-1.3-.21-2.16-.21-2.16s-1.93-3.43-2.65-3.47c-.72-.04-5.83 3.47-7.18 5-1.17 1.29-1.4 1.2-1.4 3.47 0 1.5.17 6.65.13 11.23 1.81.2 4.47.7 5.27 1.88 0 0-.29-7.18 7.81-3.42 0 0 .28-9.79 11.46-7.28a43.72 43.72 0 0 0-13.7-10.74Zm-10.53-2.32a90.441 90.441 0 0 0-1.4-16.53s-.15-1.3-.87-.24a14.263 14.263 0 0 0-1.2 4 70.88 70.88 0 0 0-12.82.34c-.82-2.75-2.22-4-2.89-3.67-.67.33-.75 3.28-.75 3.28l-.33 14.16a142.779 142.779 0 0 1 20.26-1.34Z" fill="#F06351"/><path d="M45.35 47.12c.13-1.07.2-2.49.24-4.06l-8.15 2.17a64.005 64.005 0 0 1-7.8 1.77l1.11 5c0 .11 0 .22.07.33a32.32 32.32 0 0 0 4.76 2.55 42.42 42.42 0 0 0 6.88-4.13v.06a15.22 15.22 0 0 0 2.89-3.69Z" fill="#E55645"/><path d="M32 16.22c-.05-.1 1 .68 1.41.92.41.24.61.42.61.59 0 .17-.26.34-.62.34s-.92-.12-1-.26c-.08-.14.6 0 .94 0h.29A8.083 8.083 0 0 1 32 16.22Zm7.5.11s-1 1.28-1.09 1.34c-.09.06-.17.34.19.29a8.09 8.09 0 0 0 1.22-.28c.11-.06.07-.2-.12-.18-.19.02-.68.05-1 .11l.85-1.27s.03-.12-.05-.01Zm-3.14 6.11a2.3 2.3 0 0 0 1.09-1c.28-.66 0-.91-.44-1a2.45 2.45 0 0 0-1.75.34c-.39.37-.34.73 0 1a5.16 5.16 0 0 0 1.1.66Z" fill="#000"/><path d="M36 23.7a2.05 2.05 0 0 1-.46.6 1.73 1.73 0 0 1-1 .38 2.18 2.18 0 0 1-1.54-.44 1.999 1.999 0 0 1-.53-.45 1.001 1.001 0 0 0-.36-.25s.75 4.11 2.57 4.77c1.82.66 2.16-.76 2.21-1.14a5.63 5.63 0 0 0-.82-3.24c0-.3-.02-.1-.07-.23Z" fill="#F06351"/><path d="M34.3 24.84a3.502 3.502 0 0 1-2.35-1.43.15.15 0 0 1 0-.2.14.14 0 0 1 .2 0 3.219 3.219 0 0 0 2.11 1.31 2.11 2.11 0 0 0 1.64-1l.14-.19.1.22s.38.76 1 .8c.62.04 1.06-.42 1.63-1.29a.144.144 0 0 1 .24.16c-.667.98-1.297 1.45-1.89 1.41A1.55 1.55 0 0 1 36 23.9a2.26 2.26 0 0 1-1.7.94Z" fill="#000"/><path d="M36.26 38.3a3.75 3.75 0 1 0 0-7.5 3.75 3.75 0 0 0 0 7.5Z" fill="#FDC305"/><path d="m41.23 31.5-3.13 1.31 1.15-5.63-7.5 9.76 3.13-1.31-1.15 5.64 7.5-9.77Zm-7.39 3.83L38 29.92l-.81 4 2-.82L35 38.52l.81-4-1.97.81Zm-1.4-1.47a1.12 1.12 0 1 0 0-2.24 1.12 1.12 0 0 0 0 2.24Zm6.52 4.06a.79.79 0 1 0 0-1.58.79.79 0 0 0 0 1.58Zm.96-2.17a.35.35 0 1 0 0-.7.35.35 0 0 0 0 .7Z" fill="#111"/><path d="M45.88 21.16a57.467 57.467 0 0 0-5.09 5.21 31.877 31.877 0 0 1-5.31 4.9c-.22-.53-1.63-1.52-1.63-1.52s-3.14-2.15-5.2-3.84a31.894 31.894 0 0 1-3.14-3l-2-.11a22.63 22.63 0 0 0 12 8.84c.86-.14 3.28-1.87 5.09-3.28a57.664 57.664 0 0 0 6-5.91 6.38 6.38 0 0 0 1.14-2c-1.14.38-1.86.71-1.86.71Z" fill="#F06351"/><path d="m65.22 3.5-8.46 9.44-1.22-1.99L63.69 0l1.53 3.5Zm-2.57 13.76 5.54-4.11-.78-3.74-5.4 4.81.64 3.04Zm-2.73 32.11 6.13 3.18 3.01-2.34-6.69-2.75-2.45 1.91ZM1.95 5.97l3.07-3.36 9.29 9-1.22 2.28L1.95 5.97Zm5.43 10.31-4.7-3.13-2.4 3.87 5.15 2.4 1.95-3.14Zm6.53 36.27L9.36 55.9l2.8 3.58 4.02-4.02-2.27-2.91Z" fill="#FDC305"/><path d="M25.93 28s-3.81-1.44-5.21-1.83a3.76 3.76 0 0 0-4 .63 5.07 5.07 0 0 0-1.73 3.85c.211.465.372.95.48 1.45.05.48-1.2.43-2 .43s-.92-1.44-.29-3.13c.492-1.3 1.1-2.551 1.82-3.74-5.45 2.84-15 9.4-15 9.4a45.825 45.825 0 0 1 8.19.24c5.25.53 5 4.67 5 4.67a38.52 38.52 0 0 1 5.63-1.11c2.12-.14 2.27 2.12 2.27 2.12l.53 3.86a18.294 18.294 0 0 1 2.65-2.36 6.06 6.06 0 0 1 4.38-1.3L25.93 28Z" fill="#F06351"/><path d="M85.66 42a8.29 8.29 0 0 1-1.4-5.19v-7.5a8.42 8.42 0 0 1 1.38-5.24c.927-1.193 2.51-1.787 4.75-1.78 2.24.007 3.757.53 4.55 1.57a6.72 6.72 0 0 1 1.33 4.49v1.76h-4.14V28.2a9.985 9.985 0 0 0-.13-1.5 1.68 1.68 0 0 0-.47-.95 1.559 1.559 0 0 0-1.15-.37 1.46 1.46 0 0 0-1.5.75 5.472 5.472 0 0 0-.34 2.2v9.52a4.781 4.781 0 0 0 .39 2.2 1.48 1.48 0 0 0 1.45.73 1.35 1.35 0 0 0 1.4-.74 5.84 5.84 0 0 0 .31-2.19v-2h4.14v1.73A7.25 7.25 0 0 1 95 42.19c-.88 1.1-2.4 1.64-4.56 1.64-2.16 0-3.85-.6-4.78-1.83Zm16.25-19.42h4.74l4 21h-3.94l-.71-4.64h-3.32l-.8 4.61h-4l4.03-20.97Zm3.65 13.72-1.26-8.44-1.25 8.44h2.51Zm8.16-10.56h-3.24v-3.16h10.72v3.16H118v17.81h-4.29l.01-17.81Z" fill="#111"/><path d="M129.61 22.58h8.13v2.18h-5.2v6.93h4.22v2.07h-4.22v7.69h5.25v2.1h-8.18V22.58Zm10.54 0h2l6 13.93V22.58h2.44v21h-1.87l-6-14.32v14.29h-2.48l-.09-20.97Zm13.67 0h8.12v2.18h-5.2v6.93H161v2.07h-4.22v7.69H162v2.1h-8.18V22.58Zm10.53 0h4.22a7 7 0 0 1 4.67 1.31c1 .87 1.49 2.29 1.49 4.26 0 2.667-.863 4.297-2.59 4.89l3 10.51h-2.84l-2.75-9.84h-2.27v9.84h-2.93V22.58Zm4 9a3.87 3.87 0 0 0 2.7-.76 3.574 3.574 0 0 0 .82-2.71 5.851 5.851 0 0 0-.29-2 1.887 1.887 0 0 0-1-1.08 4.759 4.759 0 0 0-2.05-.35h-1.29v6.94l1.11-.04ZM178.67 42a9.247 9.247 0 0 1-1.27-5.35v-7c-.034-1.35.134-2.7.5-4a4.483 4.483 0 0 1 1.74-2.41 5.91 5.91 0 0 1 3.36-.84 5.264 5.264 0 0 1 4.18 1.48 7.001 7.001 0 0 1 1.28 4.63v.78h-2.75v-.65a11.491 11.491 0 0 0-.18-2.32 2 2 0 0 0-.76-1.23 2.999 2.999 0 0 0-1.72-.41 2.52 2.52 0 0 0-1.81.56 2.557 2.557 0 0 0-.77 1.48 14.718 14.718 0 0 0-.17 2.49V37a7.518 7.518 0 0 0 .59 3.46 2.827 2.827 0 0 0 3.496.736c.383-.197.716-.48.974-.826a8.104 8.104 0 0 0 .61-3.65v-1.48h-2.66v-2.07h5.3v10.38h-1.81l-.29-2.41a3.685 3.685 0 0 1-3.73 2.67 4.657 4.657 0 0 1-4.11-1.81Zm16.02-5.85-4.53-13.57h2.72l3.21 10.12 3.16-10.12H202l-4.5 13.57v7.4h-2.8l-.01-7.4Z" fill="#444"/></g></symbol><symbol id="icon-login-nav-mobile"><g fill="none"><g clip-path="url(#a)"><path d="M6.07 20.72v-2.26a143.265 143.265 0 0 1 20.17-1.33c0 .6 0 1.21-.06 1.82a25.518 25.518 0 0 1 6-1.82A16.67 16.67 0 0 0 .19 20.39l5.88.33Zm21.17 3.51c-1.16 1.28-1.39 1.2-1.39 3.45v9.18A16.64 16.64 0 0 0 33.32 23a17.302 17.302 0 0 0-.32-3.1 33.109 33.109 0 0 0-5.76 4.33ZM6.36 25.72s-3.79-1.44-5.19-1.83A8.541 8.541 0 0 0 0 23.61a16.65 16.65 0 0 0 8.68 14L6.36 25.72Z" fill="#FDC305"/><path d="M26.29 17.12A89.799 89.799 0 0 0 24.89.65S24.75-.64 24 .41a14.22 14.22 0 0 0-1.2 3.94 70.34 70.34 0 0 0-12.77.34C9.24 2 7.85.75 7.18 1c-.67.25-.72 3.31-.72 3.31l-.33 14.1a143.211 143.211 0 0 1 20.16-1.29Z" fill="#F06351"/><path d="M12.41 14c0-.09 1 .68 1.41.92.41.24.61.42.61.59 0 .17-.27.34-.63.34s-.91-.12-1-.27h1.23A8.34 8.34 0 0 1 12.41 14Zm7.48.11-1.09 1.33c0 .06-.17.35.18.3a7.351 7.351 0 0 0 1.22-.29c.11 0 .07-.19-.11-.17-.18.02-.69.05-1 .11l.84-1.26s.07-.13-.04-.02Zm-3.14 6.09a2.3 2.3 0 0 0 1.09-1c.28-.65 0-.91-.44-1a2.43 2.43 0 0 0-1.74.34c-.39.36-.34.72-.05 1a5.34 5.34 0 0 0 1.14.66Z" fill="#000"/><path d="M16.35 21.45a1.92 1.92 0 0 1-.46.6 1.73 1.73 0 0 1-1 .38 2.15 2.15 0 0 1-1.47-.43 2.3 2.3 0 0 1-.53-.44c-.1-.11-.223-.2-.36-.26 0 0 .75 4.1 2.57 4.75 1.82.65 2.14-.75 2.2-1.13a5.61 5.61 0 0 0-.82-3.23c-.02-.31-.03-.11-.13-.24Z" fill="#F06351"/><path d="M14.71 22.59a3.44 3.44 0 0 1-2.361-1.466.14.14 0 0 1 .031-.154.14.14 0 0 1 .2 0 3.26 3.26 0 0 0 2.11 1.3 2.09 2.09 0 0 0 1.63-1l.14-.19.1.21s.37.76 1 .8c.63.04 1.05-.41 1.61-1.28a.14.14 0 0 1 .2 0 .15.15 0 0 1 .05.2c-.64 1-1.27 1.44-1.88 1.4a1.549 1.549 0 0 1-1.12-.76 2.26 2.26 0 0 1-1.71.94Z" fill="#000"/><path d="M26.24 18.92a58.634 58.634 0 0 0-5.07 5.19A31.633 31.633 0 0 1 15.88 29c-.22-.53-1.62-1.51-1.62-1.51s-3.13-2.14-5.18-3.82a34.139 34.139 0 0 1-3.13-3l-2-.11a22.57 22.57 0 0 0 12 8.8c.86-.14 3.27-1.86 5.07-3.26a58.13 58.13 0 0 0 5.94-5.89 6.15 6.15 0 0 0 1.14-2c-1.1.39-1.86.71-1.86.71Z" fill="#F06351"/></g><g clip-path="url(#b)" fill="#111"><path d="M91.264 29.538A6.865 6.865 0 0 1 90 25.231v-6.385a6.95 6.95 0 0 1 1.186-4.385c.869-1 2.212-1.461 4.188-1.461 1.976 0 3.24.461 4.03 1.308a5.418 5.418 0 0 1 1.186 3.769v1.538h-3.873v-1.769a3.691 3.691 0 0 0-.237-1.538 1.12 1.12 0 0 0-.456-.473 1.164 1.164 0 0 0-.65-.143c-.553 0-.948.154-1.106.539a4.846 4.846 0 0 0-.237 1.692v8.23a3.112 3.112 0 0 0 .316 1.616c.158.385.553.539 1.106.539s.87-.154 1.027-.539c.18-.52.26-1.067.237-1.615v-1.846h3.873v1.538a5.776 5.776 0 0 1-1.186 3.846c-.79.923-2.133 1.385-4.03 1.385-1.897-.077-3.32-.539-4.11-1.539Zm13.989-16.308h4.504l3.32 17.54h-3.636l-.632-3.693h-2.608l-.632 3.692h-3.715l3.399-17.538Zm3.24 11.54-.948-6.847-.949 6.846h1.897Zm7.35-8.616h-2.687V13.23h9.404v2.846h-2.687v14.692h-4.03V16.154Zm13.909-2.924h6.955v1.847h-4.505v5.77h3.635v1.768h-3.635v6.462h4.505v1.77h-7.034V13.23h.079Zm9.009 0h1.739l5.137 11.616V13.231h2.055v17.538h-1.581l-5.216-12v12h-2.134V13.231Zm11.302 0h6.954v1.847h-4.504v5.77h3.635v1.768h-3.635v6.462h4.504v1.77h-6.954V13.23Zm9.009 0h3.635a6.452 6.452 0 0 1 4.031 1.078c.869.692 1.264 1.923 1.264 3.538 0 2.23-.711 3.616-2.212 4.077l2.528 8.77h-2.449l-2.371-8.232h-1.976v8.231h-2.529V13.231h.079Zm3.477 7.54a3.523 3.523 0 0 0 2.292-.616c.474-.385.711-1.154.711-2.308a4.84 4.84 0 0 0-.237-1.692 1.975 1.975 0 0 0-.869-.923 3.69 3.69 0 0 0-1.739-.308h-1.106v5.77h.948v.076Zm8.615 8.692A7.607 7.607 0 0 1 170.057 25v-5.846a12.267 12.267 0 0 1 .395-3.308 3.92 3.92 0 0 1 1.502-2 5.27 5.27 0 0 1 2.924-.692c1.66 0 2.845.385 3.556 1.23a5.773 5.773 0 0 1 1.107 3.847v.615h-2.371v-.538c.003-.645-.05-1.288-.158-1.923a1.533 1.533 0 0 0-.633-1 2.491 2.491 0 0 0-1.501-.385 2.417 2.417 0 0 0-1.581.461 1.734 1.734 0 0 0-.632 1.231 14.024 14.024 0 0 0-.158 2.077v6.539a6.816 6.816 0 0 0 .474 2.923c.316.615.949.846 1.897.846.374.045.754-.018 1.092-.182.337-.165.617-.422.805-.741a6.922 6.922 0 0 0 .553-3.077v-1.23h-2.292v-1.77h4.584v8.692h-1.581l-.237-2a3.143 3.143 0 0 1-1.226 1.658 3.287 3.287 0 0 1-2.014.573 4.047 4.047 0 0 1-1.899-.352 3.928 3.928 0 0 1-1.499-1.186Zm13.514-4.847-3.873-11.307h2.371l2.766 8.461 2.687-8.461H191l-3.872 11.307v6.154h-2.371v-6.154h-.079Z"/></g></g></symbol><symbol id="icon-login-nav-tablet" viewBox="0 0 174 52"><g fill="none"><path d="M51.582 20.854a22.231 22.231 0 0 0-6.936-9.09 21.96 21.96 0 0 0-10.503-4.396A21.887 21.887 0 0 0 22.865 8.83a22.083 22.083 0 0 0-9.058 6.934 22.354 22.354 0 0 0-4.43 10.564 22.432 22.432 0 0 0 1.373 11.386 22.238 22.238 0 0 0 6.813 9.184 21.965 21.965 0 0 0 10.442 4.54 99.88 99.88 0 0 1-1.456-5.951 27.756 27.756 0 0 0 4.1 2.215s.104 1.877.241 3.971c1.54.027 3.08-.11 4.592-.408a1.874 1.874 0 0 1 0-.66c.25-1.625.939-4.553 1.077-6.439a13.212 13.212 0 0 0 2.498-3.224l-.052.383c-.474 3.701-1.464 7.655-2.067 8.75a4.845 4.845 0 0 1-.715.999 22.006 22.006 0 0 0 8.563-4.141 22.237 22.237 0 0 0 6.047-7.386 22.45 22.45 0 0 0 .749-18.694Zm-1.266 3.293c-.38.374-1.163.626-1.293-.504-.129-1.13-.163-1.92-.163-1.92s-1.663-2.98-2.283-3.015c-.62-.035-5.022 3.015-6.185 4.344-1.008 1.121-1.206 1.043-1.206 3.015 0 1.486.19 7.1.086 11.392l-7.02 1.886a54.724 54.724 0 0 1-6.72 1.494l-.861-5.066h-.12L22.335 24.33s-3.282-1.252-4.488-1.59a3.213 3.213 0 0 0-3.445.547c-.472.417-.85.931-1.107 1.509a4.437 4.437 0 0 0-.384 1.836c.182.404.321.826.414 1.26.043.417-1.034.374-1.723.374-.69 0-.793-1.251-.25-2.72a19.929 19.929 0 0 1 1.568-3.25 10.312 10.312 0 0 1 1.783-2.51s.12-.296 1.077-.21c.956.088 6.271.374 6.271.374l.043-1.972a121.95 121.95 0 0 1 17.436-1.165v1.59a19.265 19.265 0 0 1 7.011-1.737.778.778 0 0 1 .664.339c.293.373 2.076 2.607 2.283 2.928a24.365 24.365 0 0 1 1.576 2.607 5.44 5.44 0 0 1-.75 1.599v.008Z" fill="#FDC305"/><path d="M48.636 18.83c.405.52.758.981.862 1.12a24.464 24.464 0 0 1 1.576 2.607 5.444 5.444 0 0 1-.74 1.547c-.38.373-1.164.625-1.293-.504-.13-1.13-.18-1.877-.18-1.877s-1.663-2.98-2.283-3.015c-.62-.035-5.023 3.015-6.186 4.344-1.008 1.121-1.206 1.043-1.206 3.015 0 1.304.147 5.779.112 9.758 1.56.174 3.851.609 4.54 1.634 0 0-.25-6.239 6.728-2.972 0 0 .241-8.506 9.872-6.325a37.712 37.712 0 0 0-11.802-9.333Zm-9.071-2.016A79.248 79.248 0 0 0 38.36 2.45s-.129-1.13-.749-.208a12.47 12.47 0 0 0-1.034 3.475 60.535 60.535 0 0 0-11.043.296c-.707-2.39-1.913-3.476-2.49-3.189-.577.287-.646 2.85-.646 2.85l-.284 12.304a121.956 121.956 0 0 1 17.452-1.165Z" fill="#F06351"/><path d="M39.065 40.943c.112-.93.172-2.163.207-3.527l-7.02 1.885a54.73 54.73 0 0 1-6.72 1.538l.957 4.345c0 .095 0 .19.06.286a27.764 27.764 0 0 0 4.1 2.216 36.485 36.485 0 0 0 5.927-3.589v.053a13.208 13.208 0 0 0 2.49-3.207Z" fill="#E55645"/><path d="M27.566 14.094c-.043-.087.861.59 1.214.8.353.208.526.364.526.512 0 .148-.224.295-.534.295-.31 0-.793-.104-.862-.226-.069-.121.517 0 .81 0h.25a6.99 6.99 0 0 1-1.404-1.381Zm6.46.096s-.861 1.112-.939 1.164c-.077.052-.146.295.164.252a6.911 6.911 0 0 0 1.051-.244c.095-.052.06-.173-.103-.156-.164.017-.586.043-.862.096l.732-1.104s.026-.104-.043-.009Zm-2.704 5.308a1.98 1.98 0 0 0 .938-.868c.242-.574 0-.791-.379-.87a2.095 2.095 0 0 0-1.507.296c-.336.322-.293.634 0 .869.29.23.61.423.948.573Z" fill="#000"/><path d="M31.011 20.593a1.78 1.78 0 0 1-.396.522 1.486 1.486 0 0 1-.861.33 1.866 1.866 0 0 1-1.327-.383 1.725 1.725 0 0 1-.456-.39.862.862 0 0 0-.31-.218s.645 3.572 2.213 4.145c1.568.573 1.86-.66 1.904-.99a4.925 4.925 0 0 0-.706-2.816c0-.26-.018-.087-.06-.2Z" fill="#F06351"/><path d="M29.547 21.584a2.998 2.998 0 0 1-2.024-1.243.131.131 0 0 1 0-.173.122.122 0 0 1 .086-.037.121.121 0 0 1 .086.037 2.785 2.785 0 0 0 1.817 1.138 1.806 1.806 0 0 0 1.413-.87l.12-.164.087.191s.327.66.861.695c.534.035.913-.365 1.404-1.12a.123.123 0 0 1 .172-.035.125.125 0 0 1 .035.173c-.574.852-1.117 1.26-1.628 1.225a1.328 1.328 0 0 1-.965-.634 1.954 1.954 0 0 1-1.464.817Z" fill="#000"/><path d="M31.235 33.28c1.784 0 3.23-1.46 3.23-3.259 0-1.8-1.446-3.258-3.23-3.258s-3.23 1.458-3.23 3.258 1.446 3.258 3.23 3.258Z" fill="#FDC305"/><path d="m35.516 27.37-2.696 1.14.99-4.893-6.46 8.48 2.697-1.138-.991 4.901 6.46-8.49Zm-6.365 3.33 3.583-4.701-.698 3.476 1.723-.713-3.61 4.71.699-3.476-1.697.704Zm-1.206-1.278a.969.969 0 0 0 .965-.974.97.97 0 0 0-.965-.973.97.97 0 0 0-.965.973.97.97 0 0 0 .965.974Zm5.616 3.528c.376 0 .68-.308.68-.687a.684.684 0 0 0-.68-.687.684.684 0 0 0-.68.687c0 .379.304.686.68.686Zm.827-1.886a.303.303 0 0 0 .302-.304.303.303 0 0 0-.302-.305.303.303 0 0 0-.301.305c0 .168.135.304.301.304Z" fill="#111"/><path d="M39.522 18.386a49.73 49.73 0 0 0-4.384 4.527 27.555 27.555 0 0 1-4.574 4.258c-.19-.46-1.405-1.32-1.405-1.32s-2.704-1.869-4.48-3.337a27.578 27.578 0 0 1-2.704-2.607l-1.723-.096a19.507 19.507 0 0 0 10.337 7.681c.741-.121 2.826-1.624 4.385-2.85a49.885 49.885 0 0 0 5.169-5.135 5.566 5.566 0 0 0 .982-1.738c-.982.33-1.603.617-1.603.617ZM22.337 24.33s-3.282-1.252-4.488-1.59a3.213 3.213 0 0 0-3.446.547c-.472.417-.85.931-1.107 1.509a4.439 4.439 0 0 0-.383 1.836c.182.404.32.826.413 1.26.043.417-1.033.374-1.723.374-.689 0-.792-1.251-.25-2.72a20.01 20.01 0 0 1 1.568-3.25C8.227 24.764 0 30.464 0 30.464a39.136 39.136 0 0 1 7.055.209c4.523.46 4.307 4.058 4.307 4.058a33.033 33.033 0 0 1 4.85-.965c1.826-.121 1.956 1.842 1.956 1.842l.456 3.354a15.804 15.804 0 0 1 2.283-2.05 5.189 5.189 0 0 1 3.773-1.13L22.337 24.33Z" fill="#F06351"/><path d="M73.79 36.495a7.25 7.25 0 0 1-1.206-4.51v-6.517a7.364 7.364 0 0 1 1.189-4.553c.798-1.037 2.162-1.553 4.091-1.547 1.93.006 3.236.46 3.92 1.364a5.875 5.875 0 0 1 1.145 3.902v1.53h-3.566v-1.66a8.768 8.768 0 0 0-.112-1.304 1.464 1.464 0 0 0-.405-.825 1.341 1.341 0 0 0-.99-.322 1.248 1.248 0 0 0-1.292.652 4.79 4.79 0 0 0-.293 1.911v8.273c-.04.654.076 1.31.336 1.911a1.265 1.265 0 0 0 1.25.634c.241.035.488-.008.705-.124.216-.115.391-.297.5-.519a5.114 5.114 0 0 0 .267-1.902V31.15h3.566v1.503a6.342 6.342 0 0 1-1.06 4.006c-.758.955-2.067 1.425-3.928 1.425-1.86 0-3.316-.522-4.117-1.59ZM87.788 19.62h4.083l3.446 18.247h-3.394l-.612-4.031h-2.86l-.689 4.005h-3.445l3.471-18.22Zm3.144 11.922-1.085-7.334-1.077 7.334h2.162Zm7.03-9.176H95.17V19.62h9.234v2.746h-2.757V37.84h-3.695l.008-15.475Z" fill="#111"/><path d="M111.65 19.62h7.003v1.894h-4.479v6.022h3.635v1.799h-3.635v6.682h4.522v1.824h-7.046v-18.22Zm9.079 0h1.723l5.168 12.104V19.62h2.102v18.247h-1.611l-5.168-12.442V37.84h-2.136l-.078-18.22Zm11.776 0h6.994v1.894h-4.479v6.022h3.67v1.799h-3.635v6.682h4.496v1.824h-7.046v-18.22Zm9.071 0h3.635a5.994 5.994 0 0 1 4.023 1.138c.861.756 1.283 1.99 1.283 3.702 0 2.317-.744 3.733-2.231 4.249l2.584 9.132h-2.446l-2.369-8.55H144.1v8.55h-2.524v-18.22Zm3.445 7.82c.83.081 1.66-.154 2.326-.66a3.115 3.115 0 0 0 .706-2.355 5.12 5.12 0 0 0-.249-1.738 1.645 1.645 0 0 0-.862-.938 4.068 4.068 0 0 0-1.766-.304h-1.111v6.03l.956-.035Zm8.89 9.055a8.104 8.104 0 0 1-1.094-4.65v-6.082a11.857 11.857 0 0 1 .431-3.475 3.894 3.894 0 0 1 1.499-2.094 5.056 5.056 0 0 1 2.894-.73c.657-.063 1.32.02 1.941.241a4.526 4.526 0 0 1 1.66 1.045 6.12 6.12 0 0 1 1.102 4.023v.678h-2.368v-.565a10.088 10.088 0 0 0-.155-2.016 1.742 1.742 0 0 0-.655-1.069 2.567 2.567 0 0 0-1.482-.356 2.158 2.158 0 0 0-1.559.486 2.229 2.229 0 0 0-.663 1.287 13.042 13.042 0 0 0-.147 2.163v6.769a6.575 6.575 0 0 0 .509 3.006 2.434 2.434 0 0 0 1.944.912 2.426 2.426 0 0 0 1.906-.99 7.111 7.111 0 0 0 .526-3.171V30.62h-2.292v-1.799h4.566v9.02h-1.56l-.249-2.095a3.211 3.211 0 0 1-1.206 1.725 3.158 3.158 0 0 1-2.007.595 3.985 3.985 0 0 1-1.971-.328 4.02 4.02 0 0 1-1.57-1.244Zm13.8-5.084-3.902-11.79h2.343l2.765 8.793 2.722-8.794h2.369l-3.876 11.791v6.43h-2.412l-.009-6.43Z" fill="#444"/></g></symbol><symbol id="icon-logo-academy" viewBox="0 0 27 34"><path d="M13.6 0h-.1L0 1.4V26l13.5 8L27 26V1.4L13.6 0Zm11.6 25-11.7 7-11.7-7V15l11.7 6.8v1.3l-8-4.7v1.2l8 4.8v1.3l-8-4.8v1.2l8 4.9 8.1-4.9V17l3.6-2.1V25Zm0-11.5L22 15.3l-1.5 1-7-4.3v1.2l6 3.6-.2.1-.8.5-5-3v1.3l3.9 2.3-1 .6-3-1.7v1.2l2 1.2-2 1.1-11.6-6.8 11.6-7 11.8 6.9Zm0-1.3L13.4 5.3l-11.6 7V3l11.7-1.2L25.2 3v9.2Z"/></symbol><symbol id="icon-phone" viewBox="0 0 20 20"><g fill="none"><path d="M10 10h8.5m0 0L16 7.5m2.5 2.5L16 12.5m-7.5-10v5h-3v5h3v5H6c-1.5 0-2.5-1-2.5-2.5V5c0-1.5 1-2.5 2.5-2.5h2.5Z" stroke="#000" stroke-linecap="round" stroke-linejoin="round"/></g></symbol><symbol id="icon-tg" viewBox="0 0 21 18"><path d="m20 .2.2.6-2.6 15.7a.7.7 0 0 1-1 .5l-8-5.3a.7.7 0 0 1 0-1L11 7.6l-4.3 2.9H6L1 7.8a.7.7 0 0 1 0-1.2L19.3 0c.2 0 .5 0 .7.2ZM2.8 7.3l3.6 1.8 7.5-5a.7.7 0 0 1 .9 1L10 11l6.4 4.2 2.3-13.6L2.8 7.3Z" clip-rule="evenodd"/></symbol><symbol id="icon-vk" viewBox="0 0 28 17"><path d="M.5 2.3C.5 1.5 1 1 2 1h4c.3 0 .5.1.5.4L8 4.6A39.8 39.8 0 0 0 10.3 8s.2 0 .2-.2l.1-.3V3.2c0-.3 0-.5-.2-.6l-.8-.2c-.3 0-.5-.3-.5-.6v-.1C9.5.6 10.6 0 12.3 0h1.5c.7 0 1.3.2 1.7.5.4.3.7.8.7 1.5v5.7l.3.1c.3 0 .5-.1.7-.4A17.7 17.7 0 0 0 20.4 2l.6-.7.8-.4h4.6c.4 0 .7.2.8.5l.2.3a2.4 2.4 0 0 1 0 .6v.1c0 .7-.4 1.5-.9 2.2-.5.8-1.1 1.7-2 2.6A27.6 27.6 0 0 0 23 9.6c0 .1 0 .3.2.5l3.9 4.6c.2.3.3.5.3.9s-.2.7-.5 1a2 2 0 0 1-1.1.3H21l-.1.1c-.4 0-.8-.2-1.1-.5a241.3 241.3 0 0 1-3-3.3 38.5 38.5 0 0 0-.4 2.3l-.1.4c-.2.6-.6 1-1.1 1h-3c-1.5 0-3-.6-4.4-1.8-1.5-1.3-2.8-3-4-5A47.5 47.5 0 0 1 .5 2.3Zm16 6.6c-.4 0-.7-.1-1-.3a.9.9 0 0 1-.5-.8V2c0-.3 0-.6-.2-.7-.2-.2-.5-.2-1-.2h-1.5c-.7 0-1.3.1-1.7.4.8.3 1.2 1 1.2 1.7v4.4c0 .4-.2.8-.6 1-.3.3-.6.5-1 .5-.6 0-1-.3-1.3-.8-1.3-2-2.4-3.8-3-5.6l-.3-.6H1.7v.7l.6 1.4A33 33 0 0 0 7 12.8c1.8 2 3.5 3.1 5.2 3.1h2.9l.1-.4v-.3L16 13l.3-.6c.2-.2.5-.3.7-.3.5 0 .9.3 1.3.8l2.3 2.7c.2.2.3.3.5.3h4.4c.5 0 .8-.1.8-.4l-.1-.2-3.9-4.6c-.3-.3-.4-.7-.4-1 0-.5.1-.9.4-1.3l1.3-1.6 1.8-2.2c.5-.7.8-1.3 1-1.9v-.6H22c-.3 0-.5.2-.6.4l-.2.5c-.2 1-1.5 3-3.4 5.3-.4.4-.8.6-1.3.6Z"/></symbol><symbol id="icon-youtube" viewBox="0 0 25 19"><path d="M16.4 8.8 11 5.3a.7.7 0 0 0-1 .5v7a.7.7 0 0 0 1 .6l5.3-3.5a.7.7 0 0 0 0-1.1Zm-5 2.8V7.1l3.4 2.2-3.4 2.3ZM24 3a2.4 2.4 0 0 0-1.5-1.6C18.7 0 12.8 0 12.5 0c-.3 0-6.2 0-10 1.4A2.4 2.4 0 0 0 1.2 3C.8 4.1.5 6 .5 9.3s.3 5.3.6 6.3a2.4 2.4 0 0 0 1.5 1.7c3.7 1.4 9.6 1.4 9.9 1.4.8 0 6.4 0 10-1.4a2.4 2.4 0 0 0 1.4-1.7c.3-1 .6-3 .6-6.3 0-3.2-.3-5.2-.6-6.3Zm-1.3 12.3a1 1 0 0 1-.6.7c-3.5 1.4-9.4 1.4-9.5 1.4 0 0-6 0-9.5-1.4a1 1 0 0 1-.6-.7c-.3-1-.6-2.8-.6-6 0-3 .3-5 .6-6a1 1 0 0 1 .6-.7c3.5-1.3 9.4-1.3 9.5-1.3 0 0 6 0 9.5 1.3a1 1 0 0 1 .6.8c.3 1 .6 2.8.6 6 0 3-.3 4.9-.6 6Z"/></symbol><symbol id="program-cat-muscles" viewBox="0 0 67 28"><g fill="none"><path d="M61.56 2.878a7.601 7.601 0 0 1 2.25-2.3c.5-.35.8-.35 1.1.3.4.95.75 1.95.45 3a1.144 1.144 0 0 0 .2 1.05c.3.4.55.8.8 1.15a3.135 3.135 0 0 1 .45 3.1 2.716 2.716 0 0 0-.1 1.55 3.825 3.825 0 0 1 0 1.5 1.875 1.875 0 0 1-1.35 1.6 2.606 2.606 0 0 0-1.6 1 .525.525 0 0 1-.45.25c-.6.1-2.1-1.25-2.1-1.85v-.3c.05-1.8-.05-1.95-1.7-2.7a2.196 2.196 0 0 1-.9-.6c-.3-.4-.7-.35-1.15-.2-.45.15-.7.45-.65.95.15 1.21.2 2.432.15 3.65a.94.94 0 0 0 .1.4c1.55 2.25 2.15 4.9 2.9 7.45.6 1.95 1.7 3 3.7 3.15.32.026.637.076.95.15a2.08 2.08 0 0 1 1.7 1.6c.35 1.05.15 1.3-.9 1.3h-3.25a1.62 1.62 0 0 1-1.15-.4 5.856 5.856 0 0 0-1.7-1 3.63 3.63 0 0 1-1.7-1.3 14.307 14.307 0 0 0-2-2.25c-1.4-1.45-2.9-2.85-4.2-4.35a5.69 5.69 0 0 1-1.6-3.8c0-.45-.1-.65-.6-.45a.965.965 0 0 1-.5.15c-1.4 0-2.1.85-2.6 2.1-.45 1.05-1.05 2.05-1.6 3.1a5.195 5.195 0 0 0-.5 2.1c0 1.2.3 1.6 1.4 2 .7.25 1.35.5 1.7 1.2.4.8.3 1-.55 1.05h-3.4a.94.94 0 0 1-.95-.55l-.9-1.5a3.025 3.025 0 0 1-.35-2.7 5.93 5.93 0 0 0 .05-2.65 4.21 4.21 0 0 1 .85-3.5c.3-.35.3-.5-.2-.6a25.03 25.03 0 0 1-5.9-2.05.05.05 0 0 1-.05-.05c-1.6-.6-1.9-.5-2.35 1.15-.4 1.4-.8 2.8-1.1 4.25-.35 1.6.05 3.1.55 4.6.2.6.8.55 1.25.7 1 .3 1.85.7 2.25 1.75.35.8.3.9-.55.9-.85 0-1.7-.05-2.6 0a3.32 3.32 0 0 1-2.1-.7c-2.4-1.6-3.1-4.05-3.3-6.7-.1-1.65-1-2.95-2.05-4.2-.2-.25-.4-.35-.7-.15a22.156 22.156 0 0 1-3.35 1.5 13.355 13.355 0 0 0-6.1 4.4 5.315 5.315 0 0 0-1.1 2.55c-.15.9.1 1.3 1 1.55s1.35.75 1.45 1.7c.05.4-.1.6-.5.6h-4.05a.824.824 0 0 1-.65-.4 4.28 4.28 0 0 1-.95-2.75 25.307 25.307 0 0 1 .45-5.15 3.152 3.152 0 0 1 1.7-2.4c2.95-1.4 4.5-4.05 5.9-6.8.3-.55.05-.65-.45-.6a8.236 8.236 0 0 0-3.85 1.6 35.317 35.317 0 0 0-4.15 3.55 8.335 8.335 0 0 1-5.15 2.45c-3.65.2-5.35-1.85-5.2-5.15a4.845 4.845 0 0 1 1.2-3.05 2.125 2.125 0 0 1 2.25-.75c.75.2.95.6.65 1.35-.15.3-.35.55-.5.85a3.75 3.75 0 0 0-.5 1c-.55 1.5.2 2.55 1.75 2.7 1.65.15 3-.55 4.25-1.55a22.465 22.465 0 0 0 4-4.15 10.395 10.395 0 0 1 7.2-4.05c1.15-.15 2.15-.65 3.25-.95a20.779 20.779 0 0 1 6.35-.9 6.5 6.5 0 0 0 2.9-.55c2.45-1 5-1 7.55-.5 2 .4 4 .9 5.95 1.4a8.29 8.29 0 0 0 3.5-.1 33.894 33.894 0 0 1 6.7-1 9.08 9.08 0 0 1 4.3.85c1 .45 1 .45.75 1.4Z" fill="#000"/></g></symbol><symbol id="program-cat-slim" viewBox="0 0 36 50"><g fill="none"><path d="M28.203 0h-.195c-.33.187-.593.474-.75.82a8.028 8.028 0 0 0-.664 1.757.84.84 0 0 1-.761.691 3.77 3.77 0 0 0-2.69 1.948c-.372.661-.69 1.35-.952 2.062-.73 1.897-1.29 3.856-1.98 5.768-.324.872-.339.872-1.316.872-1.168 0-1.085-.18-1.1 1.108 0 .407.123.613.555.593.133 0 .334-.067.385.108.052.175-.123.252-.226.355a4.626 4.626 0 0 1-2.227 1.258c-.977.263-1.975.47-2.926.789-2.443.82-4.7 1.964-6.46 3.902a14.44 14.44 0 0 0-2.437 4.041C2.57 30.526 1.656 35.217.946 39.954a97.064 97.064 0 0 0-.75 6.7C.102 47.759 0 48.877 0 50h17.141a1.126 1.126 0 0 0-.118-.66 2.577 2.577 0 0 0-1.97-1.582c-.36-.083-.401-.191-.18-.475.36-.482.637-1.022.818-1.597.838-2.48 1.162-5.067 1.568-7.63.23-1.956.83-3.85 1.77-5.582a11.126 11.126 0 0 1 2.874-3.283c.427-.325.443-.325.515.227.051.366.061.742.087 1.113a48.166 48.166 0 0 1-.092 7.31 31.866 31.866 0 0 0-.078 5.67A38.826 38.826 0 0 0 23.503 50h6.84a2.79 2.79 0 0 0-2.18-2.289 4.62 4.62 0 0 0-1.934.103c-.309.073-.438 0-.463-.335a29.113 29.113 0 0 1 .514-8.154 91.803 91.803 0 0 0 1.574-9.371 9.163 9.163 0 0 1 1.172-3.609c.612-1.092 1.147-2.226 1.749-3.324a3.031 3.031 0 0 0 .216-2.676c-.139-.366-.273-.737-.442-1.087-.515-1.005-1.029-2-1.502-3.016-.252-.515-.196-.577.365-.593.838 0 .838 0 .854-.845v-.34c0-.356-.134-.552-.515-.516h-.781c-.355 0-.458-.149-.37-.515a3.217 3.217 0 0 1 2.638-2.284 11.291 11.291 0 0 1 3.404.222.513.513 0 0 0 .643-.33c.206-.515.432-1.03.664-1.546a.517.517 0 0 0-.052-.588c-1.646-2.093-3.43-4.046-5.863-5.299a.767.767 0 0 1-.452-.577 10.123 10.123 0 0 0-.653-2.144A1.803 1.803 0 0 0 28.203 0Z" fill="#000"/></g></symbol><symbol id="slider-button"><rect x="1" y="1" width="38" height="38" rx="19" fill="#fff"/><path d="m16 11-8 9 8 9V11Zm16 9-8-9v18l8-9Z" fill="currentColor"/><rect x="1" y="1" width="38" height="38" rx="19"/></symbol><symbol id="text-login-nav-mobile" viewBox="0 0 129 24"><g fill="none"><g fill="#111" clip-path="url(#a)"><path d="M2.1 22a9.5 9.5 0 0 1-1.6-5.7V7.8C.4 5.8.9 3.7 2 1.9 3.1.6 4.8 0 7.3 0s4.1.6 5.1 1.7C13.5 3.2 14 5 14 6.7v2.1H9V6.5c0-.7 0-1.4-.3-2-.1-.4-.3-.6-.6-.7-.2-.2-.5-.2-.8-.2-.7 0-1.2.2-1.4.7-.2.7-.3 1.5-.3 2.3v11c0 .7 0 1.4.4 2 .2.6.7.8 1.4.8s1.1-.2 1.3-.7c.2-.7.3-1.4.3-2.2v-2.4h5v2a8 8 0 0 1-1.6 5.2c-1 1.2-2.7 1.8-5 1.8-2.5-.1-4.3-.7-5.3-2ZM19.8.3h5.7l4.2 23.4h-4.6l-.8-5H21l-.8 5h-4.7L19.8.3ZM24 15.7l-1.2-9.1-1.2 9H24Zm9.3-11.5h-3.5V.3h12v3.8h-3.4v19.6h-5.1V4.2ZM50.9.3h8.8v2.5H54v7.7h4.6v2.3H54v8.6h5.7v2.4h-9V.3h.2Zm11.4 0h2.2L71 15.8V.3h2.6v23.4h-2L65 7.7v16h-2.7V.3Zm14.3 0h8.8v2.5h-5.7v7.7h4.6v2.3h-4.6v8.6h5.7v2.4h-8.8V.3ZM88 .3h4.6c1.9-.1 3.7.4 5.2 1.4 1 1 1.6 2.6 1.6 4.8 0 3-1 4.8-2.8 5.4l3.2 11.7h-3.1l-3-11H91v11h-3V.3h.1Zm4.4 10c1 .1 2.1-.1 3-.8.5-.5.8-1.5.8-3 0-.8 0-1.6-.3-2.3-.2-.5-.6-1-1-1.2-.7-.3-1.5-.5-2.3-.4h-1.4v7.7h1.2Zm11 11.7c-1-1.8-1.6-4-1.4-6V8.2c0-1.5.1-3 .5-4.4.3-1 1-2 1.9-2.7 1-.6 2.4-1 3.7-.9 2 0 3.6.5 4.5 1.6A8 8 0 0 1 114 7v.8h-3V7c0-.9 0-1.7-.2-2.6-.1-.5-.4-1-.8-1.3a3 3 0 0 0-2-.5 3 3 0 0 0-2 .6 2.3 2.3 0 0 0-.7 1.6c-.2 1-.2 1.9-.2 2.8v8.7c-.1 1.3 0 2.7.6 4 .4.7 1.2 1 2.4 1a2.4 2.4 0 0 0 2.4-1.2c.5-1.3.7-2.7.7-4.1v-1.6h-3V12h5.9v11.6h-2l-.3-2.7c-.3 1-.8 1.7-1.6 2.2a4 4 0 0 1-2.5.8 5 5 0 0 1-4.3-2Zm17.1-6.5-5-15h3l3.6 11.2L125.5.4h3l-5 15v8.3h-3v-8.2Z"/></g></g></symbol></svg>