<svg width="30" height="32" viewBox="0 0 30 32" fill="none" xmlns="http://www.w3.org/2000/svg">
<path d="M12.875 2C11.2438 2 9.975 3.35938 9.975 5.08125C9.975 6.80312 11.2438 8.1625 12.875 8.1625C14.5063 8.1625 15.775 6.80312 15.775 5.08125C15.775 3.35938 14.5063 2 12.875 2ZM12.875 3.17812C13.8719 3.17812 14.5969 4.02094 14.5969 5.08125C14.5969 6.07812 13.8084 6.98438 12.875 6.98438C11.8781 6.98438 11.1531 6.14156 11.1531 5.08125C11.1531 4.08437 11.9325 3.17812 12.875 3.17812ZM2 26.7406C2 27.9188 2.40781 28.9156 3.35938 29.7313C4.35625 30.5831 5.53438 30.5106 5.53438 30.5106H24.5656C25.345 30.5106 26.3781 30.13 27.1938 29.0606C28.0366 28.0638 27.9822 26.7044 27.9822 26.7044V9.48563C27.9822 9.05063 27.8734 8.8875 27.2391 8.8875C26.6047 8.8875 26.5503 9.15938 26.5503 9.47656V26.6953C26.5322 26.9944 26.4778 27.7828 25.8072 28.4172C25.0731 29.0425 24.3572 28.9609 24.3572 28.9609C24.3572 28.9609 6.23219 28.9609 5.32594 28.9338C4.98156 28.8703 4.41969 28.7434 3.87594 28.0275C3.36844 27.3025 3.46813 26.3962 3.46813 26.3962V9.1775C3.46813 8.71531 3.2325 8.54313 2.74313 8.54313C2.25375 8.54313 2 8.71531 2 9.12313V26.7406ZM18.3125 10.4281C17.225 10.6638 16.1375 10.8088 14.0531 12.7844C11.9688 14.7781 10.4281 14.6875 8.8875 14.5969C7.34688 14.5063 5.71563 13.0563 5.44375 12.6938C5.10844 12.3403 4.5375 12.5759 4.35625 12.8116C4.20219 13.0472 4.20219 13.455 4.465 13.8084C5.73375 14.9866 6.91188 15.8928 9.1775 16.0741C11.4431 16.2916 13.6181 15.2675 15.0681 13.8084C16.5181 12.3584 17.2431 12.0866 18.3306 11.9053C20.9588 11.4884 22.4994 12.5216 23.4056 13.1741C24.4025 14.2616 24.6744 13.9534 24.9463 13.6453C25.49 12.9294 24.7197 12.3766 23.8588 11.7422C22.0463 10.5641 20.3244 10.1109 18.3306 10.4734L18.3125 10.4281ZM9.25 17.5875C8.07188 17.5875 7.16563 18.5844 7.16563 19.8531C7.16563 21.1219 8.07188 22.1188 9.25 22.1188C10.4281 22.1188 11.3344 21.1219 11.3344 19.8531C11.3344 18.5844 10.4281 17.5875 9.25 17.5875ZM21.0313 18.3669C19.4906 18.3669 18.2219 19.7263 18.2219 21.3575C18.2219 22.9887 19.4906 24.3481 21.0313 24.3481C22.5719 24.3481 23.8406 22.9887 23.8406 21.3575C23.8406 19.7263 22.5719 18.3669 21.0313 18.3669ZM21.0313 19.8169C21.8288 19.8169 22.4813 20.5147 22.4813 21.3575C22.4813 22.2184 21.8288 22.8981 21.0313 22.8981C20.2338 22.8981 19.5813 22.2003 19.5813 21.3575C19.5813 20.4966 20.2338 19.8169 21.0313 19.8169Z" fill="white"/>
</svg>
